<?xml version="1.0"?>
<svg xmlns="http://www.w3.org/2000/svg" xmlns:xlink="http://www.w3.org/1999/xlink" xmlns:svgjs="http://svgjs.com/svgjs" version="1.1" width="512" height="512" x="0" y="0" viewBox="0 0 480.004 480.004" style="enable-background:new 0 0 512 512" xml:space="preserve"><g>
<g xmlns="http://www.w3.org/2000/svg">
	<g>
		<path d="M472.002,408.004h-8v-248c0-22.056-17.944-40-40-40h-56v-24c0-2.568-1.28-4.904-3.312-6.392l0.04-0.064l-120-88    c-2.816-2.064-6.648-2.064-9.464,0l-120,88l0.04,0.064c-2.024,1.488-3.304,3.824-3.304,6.392v24h-56c-22.056,0-40,17.944-40,40    v248h-8c-4.416,0-8,3.576-8,8v24c0,22.056,17.944,40,40,40h400c22.056,0,40-17.944,40-40v-24    C480.002,411.58,476.418,408.004,472.002,408.004z M368.002,200.004c8.824,0,16,7.176,16,16c0,8.824-7.176,16-16,16V200.004z     M240.002,17.924L346.05,95.692l-26.048,17.36V96.004c0-4.424-3.584-8-8-8h-144c-4.416,0-8,3.576-8,8v17.048l-26.048-17.36    L240.002,17.924z M304.002,104.004v19.72l-64,42.664l-64-42.664v-19.72H304.002z M128.002,110.948l107.56,71.712    c2.688,1.8,6.184,1.8,8.872,0l107.568-71.712v121.056h-224V110.948z M120.002,248.004h240h8c17.648,0,32-14.352,32-32    s-14.352-32-32-32v-16h48v208h-352v-208h48v16c-17.648,0-32,14.352-32,32s14.352,32,32,32H120.002z M112.002,200.004v32    c-8.824,0-16-7.176-16-16C96.002,207.18,103.178,200.004,112.002,200.004z M32.002,160.004c0-13.232,10.768-24,24-24h56v16h-56    c-4.416,0-8,3.576-8,8v224c0,4.424,3.584,8,8,8h368c4.416,0,8-3.576,8-8v-224c0-4.424-3.584-8-8-8h-56v-16h56    c13.232,0,24,10.768,24,24v248h-160c-4.416,0-8,3.576-8,8c0,4.416-3.592,8-8,8h-64c-4.408,0-8-3.584-8-8c0-4.424-3.584-8-8-8h-160    V160.004z M464.002,440.004c0,13.232-10.768,24-24,24h-400c-13.232,0-24-10.768-24-24v-16H185.37c3.304,9.312,12.2,16,22.632,16    h64c10.432,0,19.328-6.688,22.632-16h169.368V440.004z" fill="#ffffff" data-original="#000000" style=""/>
	</g>
</g>
<g xmlns="http://www.w3.org/2000/svg">
	<g>
		<rect x="232.002" y="264.004" width="16" height="16" fill="#ffffff" data-original="#000000" style=""/>
	</g>
</g>
<g xmlns="http://www.w3.org/2000/svg">
	<g>
		<rect x="232.002" y="296.004" width="16" height="16" fill="#ffffff" data-original="#000000" style=""/>
	</g>
</g>
<g xmlns="http://www.w3.org/2000/svg">
	<g>
		<rect x="200.002" y="296.004" width="16" height="16" fill="#ffffff" data-original="#000000" style=""/>
	</g>
</g>
<g xmlns="http://www.w3.org/2000/svg">
	<g>
		<rect x="264.002" y="296.004" width="16" height="16" fill="#ffffff" data-original="#000000" style=""/>
	</g>
</g>
<g xmlns="http://www.w3.org/2000/svg">
	<g>
		<rect x="232.002" y="328.004" width="16" height="16" fill="#ffffff" data-original="#000000" style=""/>
	</g>
</g>
<g xmlns="http://www.w3.org/2000/svg">
	<g>
		<rect x="200.002" y="328.004" width="16" height="16" fill="#ffffff" data-original="#000000" style=""/>
	</g>
</g>
<g xmlns="http://www.w3.org/2000/svg">
	<g>
		<rect x="168.002" y="328.004" width="16" height="16" fill="#ffffff" data-original="#000000" style=""/>
	</g>
</g>
<g xmlns="http://www.w3.org/2000/svg">
	<g>
		<rect x="264.002" y="328.004" width="16" height="16" fill="#ffffff" data-original="#000000" style=""/>
	</g>
</g>
<g xmlns="http://www.w3.org/2000/svg">
	<g>
		<rect x="296.002" y="328.004" width="16" height="16" fill="#ffffff" data-original="#000000" style=""/>
	</g>
</g>
<g xmlns="http://www.w3.org/2000/svg">
</g>
<g xmlns="http://www.w3.org/2000/svg">
</g>
<g xmlns="http://www.w3.org/2000/svg">
</g>
<g xmlns="http://www.w3.org/2000/svg">
</g>
<g xmlns="http://www.w3.org/2000/svg">
</g>
<g xmlns="http://www.w3.org/2000/svg">
</g>
<g xmlns="http://www.w3.org/2000/svg">
</g>
<g xmlns="http://www.w3.org/2000/svg">
</g>
<g xmlns="http://www.w3.org/2000/svg">
</g>
<g xmlns="http://www.w3.org/2000/svg">
</g>
<g xmlns="http://www.w3.org/2000/svg">
</g>
<g xmlns="http://www.w3.org/2000/svg">
</g>
<g xmlns="http://www.w3.org/2000/svg">
</g>
<g xmlns="http://www.w3.org/2000/svg">
</g>
<g xmlns="http://www.w3.org/2000/svg">
</g>
</g></svg>
