<?xml version="1.0"?>
<svg xmlns="http://www.w3.org/2000/svg" xmlns:xlink="http://www.w3.org/1999/xlink" xmlns:svgjs="http://svgjs.com/svgjs" version="1.1" width="512" height="512" x="0" y="0" viewBox="0 0 490.667 490.667" style="enable-background:new 0 0 512 512" xml:space="preserve" class=""><g>
<g xmlns="http://www.w3.org/2000/svg">
	<g>
		<path d="M437.333,10.667h-384C23.936,10.667,0,34.603,0,64v234.667C0,328.064,23.936,352,53.333,352H96    c5.888,0,10.667-4.779,10.667-10.667c0-5.888-4.779-10.667-10.667-10.667H53.333c-17.643,0-32-14.357-32-32V64    c0-17.643,14.357-32,32-32h384c17.643,0,32,14.357,32,32v234.667c0,17.643-14.357,32-32,32h-42.667    c-5.888,0-10.667,4.779-10.667,10.667c0,5.888,4.779,10.667,10.667,10.667h42.667c29.397,0,53.333-23.936,53.333-53.333V64    C490.667,34.603,466.731,10.667,437.333,10.667z" fill="#ffffff" data-original="#000000" style="" class=""/>
	</g>
</g>
<g xmlns="http://www.w3.org/2000/svg">
	<g>
		<path d="M445.995,57.749c-3.456-4.779-10.112-5.867-14.891-2.389l-165.76,119.701c-12.139,8.768-27.861,8.768-40,0L59.584,55.36    c-4.8-3.477-11.456-2.389-14.891,2.389c-3.456,4.779-2.389,11.456,2.389,14.891l165.76,119.701    c9.707,7.019,21.099,10.539,32.491,10.539s22.784-3.499,32.512-10.539L443.605,72.64    C448.363,69.205,449.451,62.528,445.995,57.749z" fill="#ffffff" data-original="#000000" style="" class=""/>
	</g>
</g>
<g xmlns="http://www.w3.org/2000/svg">
	<g>
		<path d="M167.531,184.469c-4.16-4.16-10.923-4.16-15.083,0L45.781,291.136c-4.16,4.16-4.16,10.923,0,15.083    c2.091,2.069,4.821,3.115,7.552,3.115s5.461-1.045,7.531-3.115l106.667-106.667C171.691,195.392,171.691,188.629,167.531,184.469z    " fill="#ffffff" data-original="#000000" style="" class=""/>
	</g>
</g>
<g xmlns="http://www.w3.org/2000/svg">
	<g>
		<path d="M444.864,291.136L338.197,184.469c-4.16-4.16-10.923-4.16-15.083,0c-4.16,4.16-4.16,10.923,0,15.083l106.667,106.667    c2.091,2.069,4.821,3.115,7.552,3.115c2.731,0,5.461-1.045,7.531-3.115C449.024,302.059,449.024,295.296,444.864,291.136z" fill="#ffffff" data-original="#000000" style="" class=""/>
	</g>
</g>
<g xmlns="http://www.w3.org/2000/svg">
	<g>
		<path d="M245.333,245.333C180.629,245.333,128,297.963,128,362.667S180.629,480,245.333,480c30.635,0,59.605-11.712,81.579-33.003    c4.245-4.096,4.352-10.859,0.256-15.083c-4.096-4.245-10.837-4.309-15.083-0.256c-17.984,17.429-41.707,27.008-66.752,27.008    c-52.928,0-96-43.072-96-96c0-52.928,43.072-96,96-96s96,43.072,96,96c0,5.888,4.779,10.667,10.667,10.667    s10.667-4.779,10.667-10.667C362.667,297.963,310.037,245.333,245.333,245.333z" fill="#ffffff" data-original="#000000" style="" class=""/>
	</g>
</g>
<g xmlns="http://www.w3.org/2000/svg">
	<g>
		<path d="M245.333,309.333c-29.397,0-53.333,23.936-53.333,53.333S215.936,416,245.333,416s53.333-23.936,53.333-53.333    S274.731,309.333,245.333,309.333z M245.333,394.667c-17.643,0-32-14.357-32-32c0-17.643,14.357-32,32-32s32,14.357,32,32    C277.333,380.309,262.976,394.667,245.333,394.667z" fill="#ffffff" data-original="#000000" style="" class=""/>
	</g>
</g>
<g xmlns="http://www.w3.org/2000/svg">
	<g>
		<path d="M352,352c-5.888,0-10.667,4.779-10.667,10.667c0,23.936-5.376,32-21.333,32c-14.165,0-21.333-10.773-21.333-32    c0-5.888-4.779-10.667-10.667-10.667s-10.667,4.779-10.667,10.667C277.333,396.053,293.291,416,320,416    c42.667,0,42.667-40.149,42.667-53.333C362.667,356.779,357.888,352,352,352z" fill="#ffffff" data-original="#000000" style="" class=""/>
	</g>
</g>
<g xmlns="http://www.w3.org/2000/svg">
</g>
<g xmlns="http://www.w3.org/2000/svg">
</g>
<g xmlns="http://www.w3.org/2000/svg">
</g>
<g xmlns="http://www.w3.org/2000/svg">
</g>
<g xmlns="http://www.w3.org/2000/svg">
</g>
<g xmlns="http://www.w3.org/2000/svg">
</g>
<g xmlns="http://www.w3.org/2000/svg">
</g>
<g xmlns="http://www.w3.org/2000/svg">
</g>
<g xmlns="http://www.w3.org/2000/svg">
</g>
<g xmlns="http://www.w3.org/2000/svg">
</g>
<g xmlns="http://www.w3.org/2000/svg">
</g>
<g xmlns="http://www.w3.org/2000/svg">
</g>
<g xmlns="http://www.w3.org/2000/svg">
</g>
<g xmlns="http://www.w3.org/2000/svg">
</g>
<g xmlns="http://www.w3.org/2000/svg">
</g>
</g></svg>
