<?xml version="1.0"?>
<svg xmlns="http://www.w3.org/2000/svg" xmlns:xlink="http://www.w3.org/1999/xlink" xmlns:svgjs="http://svgjs.com/svgjs" version="1.1" width="512" height="512" x="0" y="0" viewBox="0 0 504.744 504.744" style="enable-background:new 0 0 512 512" xml:space="preserve" class=""><g><path xmlns="http://www.w3.org/2000/svg" d="m481.123 255.993h-61.18c-5.523 0-10 4.478-10 10 0 83.525-65.328 152.068-147.571 157.245v-16.617c0-12.84-20-12.859-20 0v16.617c-78.935-4.969-142.276-68.31-147.245-147.245h16.178c12.84 0 12.859-20 0-20h-16.18c4.968-78.938 68.308-142.293 147.246-147.258v17.232c0 7.817 9.209 12.707 15.692 8.222l83.815-58.02c5.59-3.869 5.619-12.555 0-16.444l-83.814-58.02c-6.426-4.449-15.692.338-15.692 8.222v17.518c-31.403 1.277-61.696 8.586-90.185 21.773-11.653 5.393-3.267 23.552 8.401 18.149 28.85-13.354 59.73-20.125 91.783-20.125 5.523 0 10-4.477 10-10v-8.231l56.246 38.936-56.246 38.936v-8.461c0-5.523-4.477-10-10-10-97.913 0-177.571 79.658-177.571 177.571s79.658 177.571 177.571 177.571c94.561 0 172.094-74.288 177.293-167.571h41.236c-2.443 54.677-24.896 105.729-63.848 144.681-41.316 41.316-96.25 64.07-154.68 64.07s-113.364-22.754-154.68-64.07c-41.317-41.316-64.071-96.25-64.071-154.681 0-58.83 23.022-114.03 64.825-155.431 9.165-9.077-4.91-23.289-14.073-14.21-45.625 45.186-70.751 105.432-70.751 169.641 0 63.772 24.834 123.729 69.929 168.822 45.094 45.095 105.05 69.929 168.822 69.929s123.727-24.834 168.821-69.928 69.929-105.05 69.929-168.822c0-5.523-4.477-10.001-10-10.001z" fill="#ffffff" data-original="#000000" style=""/><path xmlns="http://www.w3.org/2000/svg" d="m204.801 257.266c-10.188 7.384-20.749 14.053-28.091 24.565-5.361 7.669-11.638 37.548 4.263 37.548h57.941c8.92 0 8.996-18.93-.156-18.93h-46.307c-.343-5.591 1.2-9.853 5.422-13.892 8.675-8.294 19.3-14.311 28.735-21.677 18.324-14.316 27.428-42.98 5.956-59.022-18.552-13.861-48.92-9.261-58.33 13.127-3.57 8.494-2.353 24.134 10.888 21.063 9.485-2.2 6.543-13.561 12.334-19.361 8.076-8.089 23.166-3.206 25.776 7.38 3.039 12.327-9.827 22.776-18.431 29.199z" fill="#ffffff" data-original="#000000" style=""/><path xmlns="http://www.w3.org/2000/svg" d="m313.087 317.472c4.948 2.914 18.349 3.119 18.349-5.202v-20.455h7.804c8.989 0 9.308-18.93 0-18.93h-7.804v-18.271c0-9.839-21.587-9.839-21.587 0v18.271h-19.428l31.882-63.764c4.969-9.938-14.483-15.255-19.096-5.526l-39.354 76.741c-2.78 5.118.063 11.479 6.144 11.479h39.852v20.455c-.001 2.198 1.079 3.93 3.238 5.202z" fill="#ffffff" data-original="#000000" style=""/><path xmlns="http://www.w3.org/2000/svg" d="m243.142 370.539c2.097 5.029 8.007 7.492 13.05 5.41 5.034-2.079 7.497-8.033 5.41-13.061-2.089-5.032-8.019-7.497-13.06-5.41-5.049 2.091-7.462 8.026-5.4 13.061z" fill="#ffffff" data-original="#000000" style=""/><path xmlns="http://www.w3.org/2000/svg" d="m113.032 82.839c3.442 8.396 15.876 7.906 18.723-.688 2.813-8.491-6.627-16.231-14.418-11.833-4.33 2.445-6.218 7.929-4.305 12.521z" fill="#ffffff" data-original="#000000" style=""/></g></svg>
