<?xml version="1.0"?>
<svg xmlns="http://www.w3.org/2000/svg" xmlns:xlink="http://www.w3.org/1999/xlink" xmlns:svgjs="http://svgjs.com/svgjs" version="1.1" width="512" height="512" x="0" y="0" viewBox="0 0 512 512" style="enable-background:new 0 0 512 512" xml:space="preserve" class=""><g><g xmlns="http://www.w3.org/2000/svg"><circle cx="256" cy="271" r="15" fill="#d70f3d" data-original="#000000" style="" class=""/><path d="m181 271c0 41.353 33.633 75 75 75s75-33.647 75-75-33.633-75-75-75-75 33.647-75 75zm120 0c0 24.814-20.186 45-45 45s-45-20.186-45-45 20.186-45 45-45 45 20.186 45 45z" fill="#d70f3d" data-original="#000000" style="" class=""/><path d="m361 271c0 57.891-47.109 105-105 105s-105-47.109-105-105c0-18.871 5.405-36.346 14.158-51.669l-165.158-127.675v344.344h512v-331.913l-163.537 118.225c7.738 14.623 12.537 31.026 12.537 48.688z" fill="#d70f3d" data-original="#000000" style="" class=""/><path d="m183.353 195.502c18.887-18.179 44.429-29.502 72.647-29.502 29.443 0 56.006 12.268 75.092 31.86l168.536-121.86h-470.923z" fill="#d70f3d" data-original="#000000" style="" class=""/></g></g></svg>
